{"title":"12 Stones - Broken   By Haunting Summer ","uid":6336174,"size":33983852,"categoryP":"video","categoryS":"music_videos","magnet":"?xt=urn:btih:f2a06af6a5fa7aabeb9d7296c5a7e70da076d9c8&amp;dn=12+Stones+-+Broken+++By+Haunting+Summer+&amp;tr=udp%3A%2F%2Ftracker.openbittorrent.com%3A80&amp;tr=udp%3A%2F%2Fopen.demonii.com%3A1337&amp;tr=udp%3A%2F%2Ftracker.coppersurfer.tk%3A6969&amp;tr=udp%3A%2F%2Fexodus.desync.com%3A6969","seeders":0,"leechers":1,"uploader":"HaUnTiNg.SuMMeR","files":-1,"time":1303431514,"description":"========================== BROKEN BY 12 STONES ================================\n\n========================== TRIBUTE TO ROCK STARS =============================\n\nFormat                           : MPEG-PS\nFile size                        : 32.4 MiB\nDuration                         : 3mn 14s\nOverall bit rate                 : 1 396 Kbps\nWriting library                  : encoded by TMPGEnc (ver. 2.51.33.127)\n\nVideo\nID                               : 224 (0xE0)\nFormat                           : MPEG Video\nFormat version                   : Version 1\nFormat settings, BVOP            : Yes\nFormat settings, Matrix          : Default\nDuration                         : 3mn 14s\nBit rate mode                    : Constant\nBit rate                         : 1 150 Kbps\nWidth                            : 352 pixels\nHeight                           : 240 pixels\nDisplay aspect ratio             : 4:3\nFrame rate                       : 29.970 fps\nStandard                         : NTSC\nColor space                      : YUV\nBit depth                        : 8 bits\nScan type                        : Progressive\nBits/(Pixel*Frame)               : 0.454\nStream size                      : 26.6 MiB (82%)\nWriting library                  : TMPGEnc 2.51.33.127\n\nAudio\nID                               : 192 (0xC0)\nFormat                           : MPEG Audio\nFormat version                   : Version 1\nFormat profile                   : Layer 2\nDuration                         : 3mn 14s\nBit rate mode                    : Constant\nBit rate                         : 224 Kbps\nChannel(s)                       : 2 channels\nSampling rate                    : 44.1 KHz\nStream size                      : 5.20 MiB (16%)\n\n===========================================================================\n\n                       &lt;a href=&quot; http://bayimg.com/PaHdFaaDL&quot; rel=&quot;nofollow&quot; target=&quot;_NEW&quot;&gt; http://bayimg.com/PaHdFaaDL&lt;/a&gt;\n\n===========================================================================\n\n===========================================================================\n  \nI URGE TO ALL D/L PLEASE HIT ON QUALITY +/- AND LEAVE COMMENTS IF POSSIBLE \n\n=============================================================================\n\n========================== HAUNTING SUMMER ==================================\n","torrent":{"xt":"urn:btih:f2a06af6a5fa7aabeb9d7296c5a7e70da076d9c8","amp;dn":"12+Stones+-+Broken+++By+Haunting+Summer+","amp;tr":["udp%3A%2F%2Ftracker.openbittorrent.com%3A80","udp%3A%2F%2Fopen.demonii.com%3A1337","udp%3A%2F%2Ftracker.coppersurfer.tk%3A6969","udp%3A%2F%2Fexodus.desync.com%3A6969"],"infoHash":"f2a06af6a5fa7aabeb9d7296c5a7e70da076d9c8","infoHashBuffer":{"type":"Buffer","data":[242,160,106,246,165,250,122,171,235,157,114,150,197,167,231,13,160,118,217,200]},"announce":[],"urlList":[]}}